<svg width="560" height="24" viewBox="0 0 560 24" fill="none" xmlns="http://www.w3.org/2000/svg">
<path d="M73.7502 17.5H81.3102V19H72.1502V5.8H73.7502V17.5ZM87.6904 19.2C86.7437 19.2 85.8971 18.9933 85.1504 18.58C84.4171 18.1667 83.8437 17.5733 83.4304 16.8C83.0171 16.0133 82.8104 15.08 82.8104 14C82.8104 12.92 83.0171 11.9933 83.4304 11.22C83.8437 10.4333 84.4104 9.83333 85.1304 9.42C85.8504 9.00667 86.6704 8.8 87.5904 8.8C88.5237 8.8 89.3171 9 89.9704 9.4C90.6371 9.8 91.1437 10.3467 91.4904 11.04C91.8371 11.72 92.0104 12.4867 92.0104 13.34C92.0104 13.5667 92.0037 13.7733 91.9904 13.96C91.9771 14.1467 91.9571 14.3133 91.9304 14.46H83.8504V13.04H91.2304L90.4104 13.2C90.4104 12.24 90.1437 11.5 89.6104 10.98C89.0904 10.46 88.4037 10.2 87.5504 10.2C86.8971 10.2 86.3304 10.3533 85.8504 10.66C85.3837 10.9533 85.0171 11.3867 84.7504 11.96C84.4971 12.52 84.3704 13.2 84.3704 14C84.3704 14.7867 84.5037 15.4667 84.7704 16.04C85.0371 16.6133 85.4104 17.0533 85.8904 17.36C86.3837 17.6533 86.9704 17.8 87.6504 17.8C88.3837 17.8 88.9771 17.66 89.4304 17.38C89.8971 17.1 90.2704 16.72 90.5504 16.24L91.8104 16.98C91.5571 17.4333 91.2304 17.8267 90.8304 18.16C90.4437 18.4933 89.9837 18.7533 89.4504 18.94C88.9304 19.1133 88.3437 19.2 87.6904 19.2ZM97.1204 6.16V16.24C97.1204 16.7333 97.2604 17.1 97.5404 17.34C97.8204 17.58 98.1804 17.7 98.6204 17.7C99.0071 17.7 99.3404 17.6333 99.6204 17.5C99.9004 17.3667 100.154 17.1867 100.38 16.96L100.94 18.3C100.634 18.58 100.267 18.8 99.8404 18.96C99.4271 19.12 98.9471 19.2 98.4004 19.2C97.8937 19.2 97.4204 19.1133 96.9804 18.94C96.5404 18.7533 96.1871 18.4667 95.9204 18.08C95.6671 17.68 95.5337 17.16 95.5204 16.52V6.6L97.1204 6.16ZM100.76 9V10.38H93.5204V9H100.76ZM104.679 5.2L104.159 10.14H102.919V5.2H104.679ZM111.173 19.2C110.2 19.2 109.3 18.9933 108.473 18.58C107.66 18.1667 107.033 17.58 106.593 16.82L107.953 15.84C108.246 16.4533 108.673 16.9333 109.233 17.28C109.806 17.6267 110.493 17.8 111.293 17.8C112 17.8 112.553 17.6667 112.953 17.4C113.353 17.12 113.553 16.76 113.553 16.32C113.553 16.04 113.46 15.7867 113.273 15.56C113.1 15.32 112.76 15.1467 112.253 15.04L109.853 14.54C108.88 14.34 108.18 14.0067 107.753 13.54C107.34 13.0733 107.133 12.4933 107.133 11.8C107.133 11.2533 107.286 10.7533 107.593 10.3C107.913 9.84667 108.36 9.48667 108.933 9.22C109.52 8.94 110.206 8.8 110.993 8.8C111.98 8.8 112.813 8.99333 113.493 9.38C114.173 9.76667 114.68 10.3133 115.013 11.02L113.673 11.9C113.446 11.3133 113.08 10.8867 112.573 10.62C112.066 10.34 111.54 10.2 110.993 10.2C110.513 10.2 110.1 10.2667 109.753 10.4C109.42 10.5333 109.16 10.72 108.973 10.96C108.8 11.1867 108.713 11.4467 108.713 11.74C108.713 12.0333 108.813 12.3067 109.013 12.56C109.213 12.8 109.586 12.9733 110.133 13.08L112.633 13.6C113.566 13.7867 114.22 14.0933 114.593 14.52C114.966 14.9467 115.153 15.4667 115.153 16.08C115.153 16.7067 114.986 17.26 114.653 17.74C114.32 18.2067 113.853 18.5667 113.253 18.82C112.653 19.0733 111.96 19.2 111.173 19.2ZM129.076 8.8C129.77 8.8 130.376 8.90667 130.896 9.12C131.43 9.33333 131.89 9.64 132.276 10.04C132.663 10.44 132.976 10.9133 133.216 11.46L131.696 12.18C131.483 11.54 131.156 11.0533 130.716 10.72C130.29 10.3733 129.73 10.2 129.036 10.2C128.37 10.2 127.796 10.3533 127.316 10.66C126.836 10.9533 126.47 11.3867 126.216 11.96C125.963 12.52 125.836 13.2 125.836 14C125.836 14.7867 125.963 15.4667 126.216 16.04C126.47 16.6133 126.836 17.0533 127.316 17.36C127.796 17.6533 128.37 17.8 129.036 17.8C129.556 17.8 130.003 17.72 130.376 17.56C130.763 17.4 131.076 17.1667 131.316 16.86C131.57 16.5533 131.743 16.18 131.836 15.74L133.316 16.26C133.09 16.8733 132.776 17.4 132.376 17.84C131.99 18.28 131.516 18.62 130.956 18.86C130.41 19.0867 129.783 19.2 129.076 19.2C128.143 19.2 127.31 18.9933 126.576 18.58C125.843 18.1667 125.27 17.5733 124.856 16.8C124.443 16.0133 124.236 15.08 124.236 14C124.236 12.92 124.443 11.9933 124.856 11.22C125.27 10.4333 125.843 9.83333 126.576 9.42C127.31 9.00667 128.143 8.8 129.076 8.8ZM141.968 12.54C141.968 11.7933 141.768 11.22 141.368 10.82C140.968 10.4067 140.401 10.2 139.668 10.2C138.974 10.2 138.388 10.3533 137.908 10.66C137.428 10.9533 137.074 11.4333 136.848 12.1L135.548 11.3C135.814 10.5533 136.308 9.95333 137.028 9.5C137.748 9.03333 138.641 8.8 139.708 8.8C140.428 8.8 141.081 8.92667 141.668 9.18C142.254 9.42 142.714 9.79333 143.048 10.3C143.394 10.7933 143.568 11.4333 143.568 12.22V17.06C143.568 17.54 143.821 17.78 144.328 17.78C144.581 17.78 144.828 17.7467 145.068 17.68L144.988 18.94C144.721 19.0733 144.374 19.14 143.948 19.14C143.561 19.14 143.214 19.0667 142.908 18.92C142.601 18.7733 142.361 18.5533 142.188 18.26C142.014 17.9533 141.928 17.5733 141.928 17.12V16.92L142.328 16.98C142.168 17.5 141.894 17.9267 141.508 18.26C141.121 18.58 140.688 18.82 140.208 18.98C139.728 19.1267 139.254 19.2 138.788 19.2C138.201 19.2 137.654 19.1 137.148 18.9C136.641 18.7 136.234 18.4 135.928 18C135.634 17.5867 135.488 17.08 135.488 16.48C135.488 15.7333 135.734 15.12 136.228 14.64C136.734 14.1467 137.434 13.8133 138.328 13.64L142.288 12.86V14.18L139.068 14.84C138.414 14.9733 137.928 15.16 137.608 15.4C137.288 15.64 137.128 15.9733 137.128 16.4C137.128 16.8133 137.288 17.1533 137.608 17.42C137.941 17.6733 138.408 17.8 139.008 17.8C139.394 17.8 139.761 17.7533 140.108 17.66C140.468 17.5533 140.788 17.4 141.068 17.2C141.348 16.9867 141.568 16.7267 141.728 16.42C141.888 16.1 141.968 15.7267 141.968 15.3V12.54ZM148.976 4.4V16.46C148.976 16.9667 149.069 17.32 149.256 17.52C149.442 17.7067 149.742 17.8 150.156 17.8C150.422 17.8 150.642 17.78 150.816 17.74C150.989 17.7 151.222 17.6267 151.516 17.52L151.256 18.92C151.042 19.0133 150.809 19.08 150.556 19.12C150.302 19.1733 150.042 19.2 149.776 19.2C148.962 19.2 148.356 18.98 147.956 18.54C147.569 18.1 147.376 17.4267 147.376 16.52V4.4H148.976ZM157.709 8.8C158.402 8.8 159.009 8.90667 159.529 9.12C160.062 9.33333 160.522 9.64 160.909 10.04C161.296 10.44 161.609 10.9133 161.849 11.46L160.329 12.18C160.116 11.54 159.789 11.0533 159.349 10.72C158.922 10.3733 158.362 10.2 157.669 10.2C157.002 10.2 156.429 10.3533 155.949 10.66C155.469 10.9533 155.102 11.3867 154.849 11.96C154.596 12.52 154.469 13.2 154.469 14C154.469 14.7867 154.596 15.4667 154.849 16.04C155.102 16.6133 155.469 17.0533 155.949 17.36C156.429 17.6533 157.002 17.8 157.669 17.8C158.189 17.8 158.636 17.72 159.009 17.56C159.396 17.4 159.709 17.1667 159.949 16.86C160.202 16.5533 160.376 16.18 160.469 15.74L161.949 16.26C161.722 16.8733 161.409 17.4 161.009 17.84C160.622 18.28 160.149 18.62 159.589 18.86C159.042 19.0867 158.416 19.2 157.709 19.2C156.776 19.2 155.942 18.9933 155.209 18.58C154.476 18.1667 153.902 17.5733 153.489 16.8C153.076 16.0133 152.869 15.08 152.869 14C152.869 12.92 153.076 11.9933 153.489 11.22C153.902 10.4333 154.476 9.83333 155.209 9.42C155.942 9.00667 156.776 8.8 157.709 8.8ZM168.38 19.2C167.74 19.2 167.134 19.08 166.56 18.84C166 18.6 165.54 18.2133 165.18 17.68C164.834 17.1333 164.66 16.4267 164.66 15.56V9H166.26V15.14C166.26 16.1533 166.48 16.8533 166.92 17.24C167.36 17.6133 167.98 17.8 168.78 17.8C169.154 17.8 169.52 17.74 169.88 17.62C170.24 17.4867 170.56 17.2867 170.84 17.02C171.134 16.74 171.36 16.3867 171.52 15.96C171.694 15.5333 171.78 15.0267 171.78 14.44V9H173.38V19H171.98L171.88 17.48C171.534 18.08 171.06 18.52 170.46 18.8C169.874 19.0667 169.18 19.2 168.38 19.2ZM178.624 4.4V16.46C178.624 16.9667 178.717 17.32 178.904 17.52C179.091 17.7067 179.391 17.8 179.804 17.8C180.071 17.8 180.291 17.78 180.464 17.74C180.637 17.7 180.871 17.6267 181.164 17.52L180.904 18.92C180.691 19.0133 180.457 19.08 180.204 19.12C179.951 19.1733 179.691 19.2 179.424 19.2C178.611 19.2 178.004 18.98 177.604 18.54C177.217 18.1 177.024 17.4267 177.024 16.52V4.4H178.624ZM189.057 12.54C189.057 11.7933 188.857 11.22 188.457 10.82C188.057 10.4067 187.491 10.2 186.757 10.2C186.064 10.2 185.477 10.3533 184.997 10.66C184.517 10.9533 184.164 11.4333 183.937 12.1L182.637 11.3C182.904 10.5533 183.397 9.95333 184.117 9.5C184.837 9.03333 185.731 8.8 186.797 8.8C187.517 8.8 188.171 8.92667 188.757 9.18C189.344 9.42 189.804 9.79333 190.137 10.3C190.484 10.7933 190.657 11.4333 190.657 12.22V17.06C190.657 17.54 190.911 17.78 191.417 17.78C191.671 17.78 191.917 17.7467 192.157 17.68L192.077 18.94C191.811 19.0733 191.464 19.14 191.037 19.14C190.651 19.14 190.304 19.0667 189.997 18.92C189.691 18.7733 189.451 18.5533 189.277 18.26C189.104 17.9533 189.017 17.5733 189.017 17.12V16.92L189.417 16.98C189.257 17.5 188.984 17.9267 188.597 18.26C188.211 18.58 187.777 18.82 187.297 18.98C186.817 19.1267 186.344 19.2 185.877 19.2C185.291 19.2 184.744 19.1 184.237 18.9C183.731 18.7 183.324 18.4 183.017 18C182.724 17.5867 182.577 17.08 182.577 16.48C182.577 15.7333 182.824 15.12 183.317 14.64C183.824 14.1467 184.524 13.8133 185.417 13.64L189.377 12.86V14.18L186.157 14.84C185.504 14.9733 185.017 15.16 184.697 15.4C184.377 15.64 184.217 15.9733 184.217 16.4C184.217 16.8133 184.377 17.1533 184.697 17.42C185.031 17.6733 185.497 17.8 186.097 17.8C186.484 17.8 186.851 17.7533 187.197 17.66C187.557 17.5533 187.877 17.4 188.157 17.2C188.437 16.9867 188.657 16.7267 188.817 16.42C188.977 16.1 189.057 15.7267 189.057 15.3V12.54ZM196.515 6.16V16.24C196.515 16.7333 196.655 17.1 196.935 17.34C197.215 17.58 197.575 17.7 198.015 17.7C198.402 17.7 198.735 17.6333 199.015 17.5C199.295 17.3667 199.548 17.1867 199.775 16.96L200.335 18.3C200.028 18.58 199.662 18.8 199.235 18.96C198.822 19.12 198.342 19.2 197.795 19.2C197.288 19.2 196.815 19.1133 196.375 18.94C195.935 18.7533 195.582 18.4667 195.315 18.08C195.062 17.68 194.928 17.16 194.915 16.52V6.6L196.515 6.16ZM200.155 9V10.38H192.915V9H200.155ZM206.714 19.2C205.767 19.2 204.92 18.9933 204.174 18.58C203.44 18.1667 202.867 17.5733 202.454 16.8C202.04 16.0133 201.834 15.08 201.834 14C201.834 12.92 202.04 11.9933 202.454 11.22C202.867 10.4333 203.434 9.83333 204.154 9.42C204.874 9.00667 205.694 8.8 206.614 8.8C207.547 8.8 208.34 9 208.994 9.4C209.66 9.8 210.167 10.3467 210.514 11.04C210.86 11.72 211.034 12.4867 211.034 13.34C211.034 13.5667 211.027 13.7733 211.014 13.96C211 14.1467 210.98 14.3133 210.954 14.46H202.874V13.04H210.254L209.434 13.2C209.434 12.24 209.167 11.5 208.634 10.98C208.114 10.46 207.427 10.2 206.574 10.2C205.92 10.2 205.354 10.3533 204.874 10.66C204.407 10.9533 204.04 11.3867 203.774 11.96C203.52 12.52 203.394 13.2 203.394 14C203.394 14.7867 203.527 15.4667 203.794 16.04C204.06 16.6133 204.434 17.0533 204.914 17.36C205.407 17.6533 205.994 17.8 206.674 17.8C207.407 17.8 208 17.66 208.454 17.38C208.92 17.1 209.294 16.72 209.574 16.24L210.834 16.98C210.58 17.4333 210.254 17.8267 209.854 18.16C209.467 18.4933 209.007 18.7533 208.474 18.94C207.954 19.1133 207.367 19.2 206.714 19.2ZM224.253 19.2C223.427 19.2 222.687 18.9933 222.033 18.58C221.393 18.1667 220.887 17.5733 220.513 16.8C220.153 16.0267 219.973 15.1 219.973 14.02C219.973 12.9133 220.167 11.9733 220.553 11.2C220.94 10.4133 221.46 9.82 222.113 9.42C222.78 9.00667 223.527 8.8 224.353 8.8C225.233 8.8 225.96 9.05333 226.533 9.56C227.107 10.0667 227.48 10.72 227.653 11.52L227.393 11.84V4.62H230.133V19H227.673L227.493 15.96L227.833 16.12C227.74 16.7467 227.527 17.2933 227.193 17.76C226.86 18.2133 226.44 18.5667 225.933 18.82C225.427 19.0733 224.867 19.2 224.253 19.2ZM225.053 17.1C225.533 17.1 225.947 16.98 226.293 16.74C226.64 16.4867 226.907 16.12 227.093 15.64C227.293 15.16 227.393 14.5867 227.393 13.92C227.393 13.28 227.3 12.74 227.113 12.3C226.927 11.8467 226.66 11.5 226.313 11.26C225.967 11.02 225.56 10.9 225.093 10.9C224.347 10.9 223.76 11.1667 223.333 11.7C222.92 12.22 222.713 12.9867 222.713 14C222.713 15.0133 222.92 15.7867 223.333 16.32C223.747 16.84 224.32 17.1 225.053 17.1ZM234.392 7.56C233.819 7.56 233.392 7.44 233.112 7.2C232.832 6.94667 232.692 6.58 232.692 6.1C232.692 5.60667 232.832 5.24 233.112 5C233.392 4.74667 233.819 4.62 234.392 4.62C234.966 4.62 235.392 4.74667 235.672 5C235.952 5.24 236.092 5.60667 236.092 6.1C236.092 6.58 235.952 6.94667 235.672 7.2C235.392 7.44 234.966 7.56 234.392 7.56ZM235.752 9V19H233.012V9H235.752ZM242.657 19.2C241.643 19.2 240.717 19.02 239.877 18.66C239.05 18.3 238.377 17.7933 237.857 17.14L239.437 15.54C239.757 16.02 240.183 16.4133 240.717 16.72C241.25 17.0267 241.883 17.18 242.617 17.18C243.137 17.18 243.55 17.1067 243.857 16.96C244.177 16.8 244.337 16.5533 244.337 16.22C244.337 16.0067 244.263 15.8267 244.117 15.68C243.97 15.52 243.677 15.3933 243.237 15.3L241.477 14.94C240.317 14.7 239.49 14.34 238.997 13.86C238.517 13.3667 238.277 12.7333 238.277 11.96C238.277 11.4133 238.437 10.9 238.757 10.42C239.09 9.94 239.583 9.55333 240.237 9.26C240.89 8.95333 241.703 8.8 242.677 8.8C243.677 8.8 244.543 8.96 245.277 9.28C246.023 9.58667 246.61 10.0467 247.037 10.66L245.397 12.26C245.103 11.7933 244.717 11.44 244.237 11.2C243.77 10.9467 243.277 10.82 242.757 10.82C242.383 10.82 242.063 10.86 241.797 10.94C241.53 11.02 241.33 11.1333 241.197 11.28C241.063 11.4133 240.997 11.5867 240.997 11.8C240.997 12.0133 241.09 12.2 241.277 12.36C241.463 12.5067 241.803 12.6333 242.297 12.74L244.337 13.16C245.323 13.36 246.03 13.7 246.457 14.18C246.883 14.6467 247.097 15.2133 247.097 15.88C247.097 16.52 246.923 17.0933 246.577 17.6C246.243 18.0933 245.743 18.4867 245.077 18.78C244.423 19.06 243.617 19.2 242.657 19.2ZM252.822 5.94V15.74C252.822 16.22 252.942 16.5733 253.182 16.8C253.435 17.0133 253.775 17.12 254.202 17.12C254.535 17.12 254.828 17.0733 255.082 16.98C255.335 16.8733 255.562 16.7333 255.762 16.56L256.202 18.38C255.882 18.6333 255.482 18.8333 255.002 18.98C254.522 19.1267 254.015 19.2 253.482 19.2C252.815 19.2 252.222 19.1 251.702 18.9C251.195 18.7 250.795 18.38 250.502 17.94C250.222 17.5 250.082 16.9133 250.082 16.18V6.7L252.822 5.94ZM256.022 9V11.04H248.242V9H256.022ZM263.673 12.62C263.673 12.0467 263.507 11.6 263.173 11.28C262.853 10.96 262.427 10.8 261.893 10.8C261.4 10.8 260.967 10.9267 260.593 11.18C260.22 11.4333 259.947 11.8533 259.773 12.44L257.433 11.72C257.66 10.84 258.153 10.1333 258.913 9.6C259.687 9.06667 260.72 8.8 262.013 8.8C262.893 8.8 263.66 8.94 264.313 9.22C264.967 9.48667 265.473 9.89333 265.833 10.44C266.207 10.9867 266.393 11.6733 266.393 12.5V16.56C266.393 17.0667 266.633 17.32 267.113 17.32C267.34 17.32 267.553 17.2867 267.753 17.22L267.593 18.92C267.247 19.0933 266.813 19.18 266.293 19.18C265.827 19.18 265.407 19.1 265.033 18.94C264.66 18.78 264.367 18.54 264.153 18.22C263.94 17.8867 263.833 17.4733 263.833 16.98V16.9L264.313 16.82C264.233 17.3267 264.013 17.76 263.653 18.12C263.293 18.4667 262.853 18.7333 262.333 18.92C261.827 19.1067 261.3 19.2 260.753 19.2C260.073 19.2 259.487 19.1 258.993 18.9C258.5 18.6867 258.12 18.38 257.853 17.98C257.587 17.58 257.453 17.0867 257.453 16.5C257.453 15.7533 257.693 15.1467 258.173 14.68C258.653 14.2 259.34 13.8733 260.233 13.7L263.993 12.94L263.973 14.64L261.573 15.12C261.12 15.2133 260.773 15.34 260.533 15.5C260.307 15.6467 260.193 15.8933 260.193 16.24C260.193 16.5733 260.313 16.8267 260.553 17C260.807 17.1733 261.107 17.26 261.453 17.26C261.733 17.26 262.007 17.2267 262.273 17.16C262.54 17.0933 262.78 16.9867 262.993 16.84C263.207 16.6933 263.373 16.4933 263.493 16.24C263.613 15.9867 263.673 15.68 263.673 15.32V12.62ZM269.458 19V9H271.918L272.078 12L271.738 11.68C271.898 11.0267 272.151 10.4867 272.498 10.06C272.844 9.63333 273.264 9.32 273.758 9.12C274.264 8.90667 274.818 8.8 275.418 8.8C276.111 8.8 276.724 8.93333 277.258 9.2C277.804 9.46667 278.231 9.87333 278.538 10.42C278.858 10.9533 279.018 11.6267 279.018 12.44V19H276.278V13.22C276.278 12.3667 276.111 11.78 275.778 11.46C275.444 11.1267 275.011 10.96 274.478 10.96C274.104 10.96 273.738 11.0533 273.378 11.24C273.031 11.4133 272.744 11.7 272.518 12.1C272.304 12.5 272.198 13.0333 272.198 13.7V19H269.458ZM286.38 8.8C287.274 8.8 288.027 8.93333 288.64 9.2C289.267 9.45333 289.767 9.80667 290.14 10.26C290.527 10.7 290.8 11.1933 290.96 11.74L288.4 12.66C288.267 12.06 288.04 11.6067 287.72 11.3C287.4 10.9933 286.967 10.84 286.42 10.84C285.914 10.84 285.48 10.96 285.12 11.2C284.76 11.4267 284.487 11.78 284.3 12.26C284.114 12.7267 284.02 13.3133 284.02 14.02C284.02 14.7267 284.114 15.3133 284.3 15.78C284.5 16.2467 284.78 16.5933 285.14 16.82C285.514 17.0467 285.947 17.16 286.44 17.16C286.84 17.16 287.18 17.0933 287.46 16.96C287.74 16.8133 287.967 16.6067 288.14 16.34C288.327 16.0733 288.454 15.7533 288.52 15.38L291 16.18C290.854 16.78 290.58 17.3067 290.18 17.76C289.78 18.2133 289.267 18.5667 288.64 18.82C288.014 19.0733 287.287 19.2 286.46 19.2C285.434 19.2 284.527 18.9933 283.74 18.58C282.954 18.1667 282.347 17.5733 281.92 16.8C281.494 16.0267 281.28 15.0933 281.28 14C281.28 12.9067 281.494 11.9733 281.92 11.2C282.347 10.4267 282.947 9.83333 283.72 9.42C284.494 9.00667 285.38 8.8 286.38 8.8ZM297.769 19.2C296.716 19.2 295.796 18.9933 295.009 18.58C294.236 18.1667 293.636 17.5733 293.209 16.8C292.783 16.0267 292.569 15.0933 292.569 14C292.569 12.9067 292.783 11.9733 293.209 11.2C293.636 10.4267 294.229 9.83333 294.989 9.42C295.763 9.00667 296.643 8.8 297.629 8.8C298.643 8.8 299.503 9.00667 300.209 9.42C300.916 9.82 301.456 10.3733 301.829 11.08C302.203 11.7733 302.389 12.5667 302.389 13.46C302.389 13.7267 302.383 13.98 302.369 14.22C302.356 14.46 302.336 14.6733 302.309 14.86H294.329V12.96H301.109L299.789 13.44C299.789 12.6 299.596 11.9533 299.209 11.5C298.836 11.0467 298.303 10.82 297.609 10.82C297.103 10.82 296.663 10.94 296.289 11.18C295.929 11.42 295.656 11.78 295.469 12.26C295.283 12.7267 295.189 13.32 295.189 14.04C295.189 14.7467 295.289 15.3333 295.489 15.8C295.703 16.2533 295.996 16.5933 296.369 16.82C296.756 17.0467 297.216 17.16 297.749 17.16C298.336 17.16 298.809 17.0467 299.169 16.82C299.529 16.5933 299.809 16.28 300.009 15.88L302.189 16.72C301.976 17.24 301.649 17.6867 301.209 18.06C300.783 18.4333 300.269 18.72 299.669 18.92C299.083 19.1067 298.449 19.2 297.769 19.2ZM315.305 4.3C315.651 4.3 315.978 4.34 316.285 4.42C316.591 4.5 316.831 4.61333 317.005 4.76L316.585 6.06C316.425 5.95333 316.251 5.88 316.065 5.84C315.878 5.78667 315.671 5.76 315.445 5.76C314.871 5.76 314.425 5.9 314.105 6.18C313.785 6.44667 313.625 6.88 313.625 7.48V9V9.52V19H312.025V7.32C312.025 6.88 312.091 6.47333 312.225 6.1C312.358 5.72667 312.558 5.40667 312.825 5.14C313.105 4.87333 313.451 4.66667 313.865 4.52C314.278 4.37333 314.758 4.3 315.305 4.3ZM316.965 9V10.38H310.025V9H316.965ZM319.096 19V9H320.396L320.616 10.64C320.896 10.0267 321.303 9.56667 321.836 9.26C322.383 8.95333 323.043 8.8 323.816 8.8C323.99 8.8 324.176 8.81333 324.376 8.84C324.59 8.86667 324.77 8.92 324.916 9L324.636 10.46C324.49 10.4067 324.33 10.3667 324.156 10.34C323.983 10.3133 323.736 10.3 323.416 10.3C323.003 10.3 322.583 10.42 322.156 10.66C321.743 10.9 321.396 11.2667 321.116 11.76C320.836 12.24 320.696 12.8533 320.696 13.6V19H319.096ZM331.088 8.8C332.035 8.8 332.868 9.00667 333.588 9.42C334.321 9.83333 334.895 10.4333 335.308 11.22C335.721 11.9933 335.928 12.92 335.928 14C335.928 15.08 335.721 16.0133 335.308 16.8C334.895 17.5733 334.321 18.1667 333.588 18.58C332.868 18.9933 332.035 19.2 331.088 19.2C330.155 19.2 329.321 18.9933 328.588 18.58C327.855 18.1667 327.281 17.5733 326.868 16.8C326.455 16.0133 326.248 15.08 326.248 14C326.248 12.92 326.455 11.9933 326.868 11.22C327.281 10.4333 327.855 9.83333 328.588 9.42C329.321 9.00667 330.155 8.8 331.088 8.8ZM331.088 10.18C330.408 10.18 329.828 10.3333 329.348 10.64C328.868 10.9467 328.495 11.3867 328.228 11.96C327.975 12.52 327.848 13.2 327.848 14C327.848 14.7867 327.975 15.4667 328.228 16.04C328.495 16.6133 328.868 17.0533 329.348 17.36C329.828 17.6667 330.408 17.82 331.088 17.82C331.768 17.82 332.348 17.6667 332.828 17.36C333.308 17.0533 333.675 16.6133 333.928 16.04C334.195 15.4667 334.328 14.7867 334.328 14C334.328 13.2 334.195 12.52 333.928 11.96C333.675 11.3867 333.308 10.9467 332.828 10.64C332.348 10.3333 331.768 10.18 331.088 10.18ZM338.94 19V9H340.34L340.44 10.56C340.8 9.94667 341.267 9.5 341.84 9.22C342.427 8.94 343.027 8.8 343.64 8.8C344.347 8.8 345.013 8.96 345.64 9.28C346.267 9.6 346.747 10.0933 347.08 10.76C347.293 10.3067 347.593 9.94 347.98 9.66C348.367 9.36667 348.787 9.15333 349.24 9.02C349.707 8.87333 350.147 8.8 350.56 8.8C351.2 8.8 351.807 8.93333 352.38 9.2C352.967 9.46667 353.447 9.88 353.82 10.44C354.193 11 354.38 11.72 354.38 12.6V19H352.78V12.76C352.78 11.8533 352.553 11.2 352.1 10.8C351.647 10.4 351.087 10.2 350.42 10.2C349.9 10.2 349.413 10.3267 348.96 10.58C348.507 10.8333 348.14 11.2067 347.86 11.7C347.593 12.1933 347.46 12.8 347.46 13.52V19H345.86V12.76C345.86 11.8533 345.633 11.2 345.18 10.8C344.727 10.4 344.167 10.2 343.5 10.2C343.06 10.2 342.607 10.32 342.14 10.56C341.687 10.7867 341.307 11.1533 341 11.66C340.693 12.1667 340.54 12.8333 340.54 13.66V19H338.94ZM370.439 19.2C369.186 19.2 368.099 18.9267 367.179 18.38C366.272 17.82 365.566 17.0333 365.059 16.02C364.566 15.0067 364.319 13.8 364.319 12.4C364.319 11 364.579 9.79333 365.099 8.78C365.632 7.76667 366.372 6.98667 367.319 6.44C368.266 5.88 369.352 5.6 370.579 5.6C371.886 5.6 372.946 5.84667 373.759 6.34C374.586 6.83333 375.252 7.59333 375.759 8.62L374.299 9.42C374.006 8.66 373.539 8.08667 372.899 7.7C372.272 7.3 371.499 7.1 370.579 7.1C369.686 7.1 368.892 7.31333 368.199 7.74C367.519 8.15333 366.979 8.76 366.579 9.56C366.192 10.3467 365.999 11.2933 365.999 12.4C365.999 13.5067 366.166 14.46 366.499 15.26C366.846 16.0467 367.352 16.6533 368.019 17.08C368.699 17.4933 369.526 17.7 370.499 17.7C371.046 17.7 371.552 17.6333 372.019 17.5C372.499 17.3533 372.912 17.14 373.259 16.86C373.619 16.58 373.899 16.2267 374.099 15.8C374.299 15.3733 374.399 14.8733 374.399 14.3V13.84H370.199V12.34H375.859V19H374.599L374.519 16.54L374.859 16.6C374.512 17.4267 373.966 18.0667 373.219 18.52C372.472 18.9733 371.546 19.2 370.439 19.2ZM383.432 8.8C384.378 8.8 385.212 9.00667 385.932 9.42C386.665 9.83333 387.238 10.4333 387.652 11.22C388.065 11.9933 388.272 12.92 388.272 14C388.272 15.08 388.065 16.0133 387.652 16.8C387.238 17.5733 386.665 18.1667 385.932 18.58C385.212 18.9933 384.378 19.2 383.432 19.2C382.498 19.2 381.665 18.9933 380.932 18.58C380.198 18.1667 379.625 17.5733 379.212 16.8C378.798 16.0133 378.592 15.08 378.592 14C378.592 12.92 378.798 11.9933 379.212 11.22C379.625 10.4333 380.198 9.83333 380.932 9.42C381.665 9.00667 382.498 8.8 383.432 8.8ZM383.432 10.18C382.752 10.18 382.172 10.3333 381.692 10.64C381.212 10.9467 380.838 11.3867 380.572 11.96C380.318 12.52 380.192 13.2 380.192 14C380.192 14.7867 380.318 15.4667 380.572 16.04C380.838 16.6133 381.212 17.0533 381.692 17.36C382.172 17.6667 382.752 17.82 383.432 17.82C384.112 17.82 384.692 17.6667 385.172 17.36C385.652 17.0533 386.018 16.6133 386.272 16.04C386.538 15.4667 386.672 14.7867 386.672 14C386.672 13.2 386.538 12.52 386.272 11.96C386.018 11.3867 385.652 10.9467 385.172 10.64C384.692 10.3333 384.112 10.18 383.432 10.18ZM395.424 8.8C396.37 8.8 397.204 9.00667 397.924 9.42C398.657 9.83333 399.23 10.4333 399.644 11.22C400.057 11.9933 400.264 12.92 400.264 14C400.264 15.08 400.057 16.0133 399.644 16.8C399.23 17.5733 398.657 18.1667 397.924 18.58C397.204 18.9933 396.37 19.2 395.424 19.2C394.49 19.2 393.657 18.9933 392.924 18.58C392.19 18.1667 391.617 17.5733 391.204 16.8C390.79 16.0133 390.584 15.08 390.584 14C390.584 12.92 390.79 11.9933 391.204 11.22C391.617 10.4333 392.19 9.83333 392.924 9.42C393.657 9.00667 394.49 8.8 395.424 8.8ZM395.424 10.18C394.744 10.18 394.164 10.3333 393.684 10.64C393.204 10.9467 392.83 11.3867 392.564 11.96C392.31 12.52 392.184 13.2 392.184 14C392.184 14.7867 392.31 15.4667 392.564 16.04C392.83 16.6133 393.204 17.0533 393.684 17.36C394.164 17.6667 394.744 17.82 395.424 17.82C396.104 17.82 396.684 17.6667 397.164 17.36C397.644 17.0533 398.01 16.6133 398.264 16.04C398.53 15.4667 398.664 14.7867 398.664 14C398.664 13.2 398.53 12.52 398.264 11.96C398.01 11.3867 397.644 10.9467 397.164 10.64C396.684 10.3333 396.104 10.18 395.424 10.18ZM411.696 7.16L412.056 8.58C412.043 8.58 412.023 8.58 411.996 8.58C411.969 8.58 411.943 8.58 411.916 8.58C411.263 8.58 410.756 8.71333 410.396 8.98C410.049 9.23333 409.876 9.64667 409.876 10.22L408.896 9.72C408.896 9.2 409.016 8.74667 409.256 8.36C409.496 7.97333 409.823 7.68 410.236 7.48C410.649 7.26667 411.103 7.16 411.596 7.16C411.609 7.16 411.623 7.16 411.636 7.16C411.663 7.16 411.683 7.16 411.696 7.16ZM408.656 17.72C409.603 17.72 410.343 17.94 410.876 18.38C411.409 18.8067 411.676 19.38 411.676 20.1C411.676 20.7533 411.456 21.32 411.016 21.8C410.589 22.28 410.009 22.6467 409.276 22.9C408.556 23.1667 407.743 23.3 406.836 23.3C405.263 23.3 404.083 23.0333 403.296 22.5C402.523 21.9667 402.136 21.3267 402.136 20.58C402.136 20.0467 402.309 19.5667 402.656 19.14C403.016 18.7267 403.616 18.4933 404.456 18.44L404.316 18.74C403.863 18.62 403.476 18.42 403.156 18.14C402.849 17.8467 402.696 17.4267 402.696 16.88C402.696 16.3333 402.896 15.8667 403.296 15.48C403.709 15.08 404.316 14.8333 405.116 14.74L406.176 15.28H405.976C405.323 15.3467 404.856 15.5133 404.576 15.78C404.309 16.0333 404.176 16.3133 404.176 16.62C404.176 16.9933 404.309 17.2733 404.576 17.46C404.856 17.6333 405.243 17.72 405.736 17.72H408.656ZM406.816 21.96C407.589 21.96 408.223 21.88 408.716 21.72C409.223 21.56 409.596 21.3533 409.836 21.1C410.076 20.8467 410.196 20.5733 410.196 20.28C410.196 19.92 410.049 19.6333 409.756 19.42C409.476 19.2067 408.963 19.1 408.216 19.1H405.136C404.709 19.1 404.349 19.2067 404.056 19.42C403.763 19.6467 403.616 19.9533 403.616 20.34C403.616 20.8333 403.896 21.2267 404.456 21.52C405.029 21.8133 405.816 21.96 406.816 21.96ZM406.676 8.8C407.476 8.8 408.183 8.94667 408.796 9.24C409.423 9.52 409.909 9.91333 410.256 10.42C410.603 10.9267 410.776 11.5133 410.776 12.18C410.776 12.8333 410.603 13.42 410.256 13.94C409.909 14.4467 409.423 14.8467 408.796 15.14C408.183 15.42 407.476 15.56 406.676 15.56C405.356 15.56 404.343 15.2467 403.636 14.62C402.929 13.98 402.576 13.1667 402.576 12.18C402.576 11.5133 402.749 10.9267 403.096 10.42C403.456 9.91333 403.943 9.52 404.556 9.24C405.169 8.94667 405.876 8.8 406.676 8.8ZM406.676 10.1C405.983 10.1 405.403 10.2933 404.936 10.68C404.469 11.0533 404.236 11.5533 404.236 12.18C404.236 12.7933 404.469 13.2933 404.936 13.68C405.403 14.0667 405.983 14.26 406.676 14.26C407.369 14.26 407.949 14.0667 408.416 13.68C408.883 13.2933 409.116 12.7933 409.116 12.18C409.116 11.5533 408.883 11.0533 408.416 10.68C407.949 10.2933 407.369 10.1 406.676 10.1ZM415.441 4.4V16.46C415.441 16.9667 415.534 17.32 415.721 17.52C415.907 17.7067 416.207 17.8 416.621 17.8C416.887 17.8 417.107 17.78 417.281 17.74C417.454 17.7 417.687 17.6267 417.981 17.52L417.721 18.92C417.507 19.0133 417.274 19.08 417.021 19.12C416.767 19.1733 416.507 19.2 416.241 19.2C415.427 19.2 414.821 18.98 414.421 18.54C414.034 18.1 413.841 17.4267 413.841 16.52V4.4H415.441ZM424.214 19.2C423.267 19.2 422.42 18.9933 421.674 18.58C420.94 18.1667 420.367 17.5733 419.954 16.8C419.54 16.0133 419.334 15.08 419.334 14C419.334 12.92 419.54 11.9933 419.954 11.22C420.367 10.4333 420.934 9.83333 421.654 9.42C422.374 9.00667 423.194 8.8 424.114 8.8C425.047 8.8 425.84 9 426.494 9.4C427.16 9.8 427.667 10.3467 428.014 11.04C428.36 11.72 428.534 12.4867 428.534 13.34C428.534 13.5667 428.527 13.7733 428.514 13.96C428.5 14.1467 428.48 14.3133 428.454 14.46H420.374V13.04H427.754L426.934 13.2C426.934 12.24 426.667 11.5 426.134 10.98C425.614 10.46 424.927 10.2 424.074 10.2C423.42 10.2 422.854 10.3533 422.374 10.66C421.907 10.9533 421.54 11.3867 421.274 11.96C421.02 12.52 420.894 13.2 420.894 14C420.894 14.7867 421.027 15.4667 421.294 16.04C421.56 16.6133 421.934 17.0533 422.414 17.36C422.907 17.6533 423.494 17.8 424.174 17.8C424.907 17.8 425.5 17.66 425.954 17.38C426.42 17.1 426.794 16.72 427.074 16.24L428.334 16.98C428.08 17.4333 427.754 17.8267 427.354 18.16C426.967 18.4933 426.507 18.7533 425.974 18.94C425.454 19.1133 424.867 19.2 424.214 19.2ZM438.393 19V9H439.793L439.893 10.56C440.253 9.94667 440.72 9.5 441.293 9.22C441.88 8.94 442.48 8.8 443.093 8.8C443.8 8.8 444.467 8.96 445.093 9.28C445.72 9.6 446.2 10.0933 446.533 10.76C446.747 10.3067 447.047 9.94 447.433 9.66C447.82 9.36667 448.24 9.15333 448.693 9.02C449.16 8.87333 449.6 8.8 450.013 8.8C450.653 8.8 451.26 8.93333 451.833 9.2C452.42 9.46667 452.9 9.88 453.273 10.44C453.647 11 453.833 11.72 453.833 12.6V19H452.233V12.76C452.233 11.8533 452.007 11.2 451.553 10.8C451.1 10.4 450.54 10.2 449.873 10.2C449.353 10.2 448.867 10.3267 448.413 10.58C447.96 10.8333 447.593 11.2067 447.313 11.7C447.047 12.1933 446.913 12.8 446.913 13.52V19H445.313V12.76C445.313 11.8533 445.087 11.2 444.633 10.8C444.18 10.4 443.62 10.2 442.953 10.2C442.513 10.2 442.06 10.32 441.593 10.56C441.14 10.7867 440.76 11.1533 440.453 11.66C440.147 12.1667 439.993 12.8333 439.993 13.66V19H438.393ZM463.296 12.54C463.296 11.7933 463.096 11.22 462.696 10.82C462.296 10.4067 461.729 10.2 460.996 10.2C460.302 10.2 459.716 10.3533 459.236 10.66C458.756 10.9533 458.402 11.4333 458.176 12.1L456.876 11.3C457.142 10.5533 457.636 9.95333 458.356 9.5C459.076 9.03333 459.969 8.8 461.036 8.8C461.756 8.8 462.409 8.92667 462.996 9.18C463.582 9.42 464.042 9.79333 464.376 10.3C464.722 10.7933 464.896 11.4333 464.896 12.22V17.06C464.896 17.54 465.149 17.78 465.656 17.78C465.909 17.78 466.156 17.7467 466.396 17.68L466.316 18.94C466.049 19.0733 465.702 19.14 465.276 19.14C464.889 19.14 464.542 19.0667 464.236 18.92C463.929 18.7733 463.689 18.5533 463.516 18.26C463.342 17.9533 463.256 17.5733 463.256 17.12V16.92L463.656 16.98C463.496 17.5 463.222 17.9267 462.836 18.26C462.449 18.58 462.016 18.82 461.536 18.98C461.056 19.1267 460.582 19.2 460.116 19.2C459.529 19.2 458.982 19.1 458.476 18.9C457.969 18.7 457.562 18.4 457.256 18C456.962 17.5867 456.816 17.08 456.816 16.48C456.816 15.7333 457.062 15.12 457.556 14.64C458.062 14.1467 458.762 13.8133 459.656 13.64L463.616 12.86V14.18L460.396 14.84C459.742 14.9733 459.256 15.16 458.936 15.4C458.616 15.64 458.456 15.9733 458.456 16.4C458.456 16.8133 458.616 17.1533 458.936 17.42C459.269 17.6733 459.736 17.8 460.336 17.8C460.722 17.8 461.089 17.7533 461.436 17.66C461.796 17.5533 462.116 17.4 462.396 17.2C462.676 16.9867 462.896 16.7267 463.056 16.42C463.216 16.1 463.296 15.7267 463.296 15.3V12.54ZM468.784 23.2V9H470.184L470.324 11.44L470.104 11.16C470.277 10.6933 470.537 10.2867 470.884 9.94C471.23 9.58 471.65 9.3 472.144 9.1C472.637 8.9 473.17 8.8 473.744 8.8C474.557 8.8 475.304 9.00667 475.984 9.42C476.677 9.83333 477.23 10.4267 477.644 11.2C478.057 11.9733 478.264 12.9067 478.264 14C478.264 15.08 478.05 16.0133 477.624 16.8C477.21 17.5733 476.657 18.1667 475.964 18.58C475.27 18.9933 474.51 19.2 473.684 19.2C472.857 19.2 472.13 19 471.504 18.6C470.89 18.1867 470.45 17.6667 470.184 17.04L470.384 16.74V23.2H468.784ZM473.524 17.8C474.51 17.8 475.277 17.4533 475.824 16.76C476.384 16.0667 476.664 15.1467 476.664 14C476.664 12.8533 476.39 11.9333 475.844 11.24C475.31 10.5467 474.557 10.2 473.584 10.2C472.944 10.2 472.384 10.36 471.904 10.68C471.424 10.9867 471.05 11.4267 470.784 12C470.517 12.56 470.384 13.2267 470.384 14C470.384 14.76 470.51 15.4267 470.764 16C471.03 16.5733 471.397 17.02 471.864 17.34C472.344 17.6467 472.897 17.8 473.524 17.8ZM484.923 19.2C483.95 19.2 483.05 18.9933 482.223 18.58C481.41 18.1667 480.783 17.58 480.343 16.82L481.703 15.84C481.996 16.4533 482.423 16.9333 482.983 17.28C483.556 17.6267 484.243 17.8 485.043 17.8C485.75 17.8 486.303 17.6667 486.703 17.4C487.103 17.12 487.303 16.76 487.303 16.32C487.303 16.04 487.21 15.7867 487.023 15.56C486.85 15.32 486.51 15.1467 486.003 15.04L483.603 14.54C482.63 14.34 481.93 14.0067 481.503 13.54C481.09 13.0733 480.883 12.4933 480.883 11.8C480.883 11.2533 481.036 10.7533 481.343 10.3C481.663 9.84667 482.11 9.48667 482.683 9.22C483.27 8.94 483.956 8.8 484.743 8.8C485.73 8.8 486.563 8.99333 487.243 9.38C487.923 9.76667 488.43 10.3133 488.763 11.02L487.423 11.9C487.196 11.3133 486.83 10.8867 486.323 10.62C485.816 10.34 485.29 10.2 484.743 10.2C484.263 10.2 483.85 10.2667 483.503 10.4C483.17 10.5333 482.91 10.72 482.723 10.96C482.55 11.1867 482.463 11.4467 482.463 11.74C482.463 12.0333 482.563 12.3067 482.763 12.56C482.963 12.8 483.336 12.9733 483.883 13.08L486.383 13.6C487.316 13.7867 487.97 14.0933 488.343 14.52C488.716 14.9467 488.903 15.4667 488.903 16.08C488.903 16.7067 488.736 17.26 488.403 17.74C488.07 18.2067 487.603 18.5667 487.003 18.82C486.403 19.0733 485.71 19.2 484.923 19.2Z" fill="#1B31A8"/>
</svg>
